<svg id="Capa_1" enable-background="new 0 0 512 512" height="512" viewBox="0 0 512 512" width="512" xmlns="http://www.w3.org/2000/svg"><g fill="#6c7ed6"><path d="m115.534 129.87 38.61 71.145 36.154-10.717 10.717-36.154-71.145-38.61c-9.188-4.987-19.34 5.115-14.336 14.336z"/><path d="m357.856 201.015 38.61-71.145c4.985-9.186-5.117-19.343-14.336-14.336l-71.144 38.61 10.717 36.154z"/><path d="m154.144 310.986-38.61 71.144c-4.986 9.188 5.115 19.34 14.336 14.336l71.144-38.61-10.717-36.153z"/><path d="m357.856 310.985-36.153 10.718-10.717 36.153 71.144 38.61c9.257 5.024 19.305-5.18 14.336-14.336z"/></g><path d="m143.807 129.87c-1.35-2.488-1.59-5.039-1.05-7.342l-12.888-6.994c-9.188-4.987-19.34 5.115-14.336 14.336l38.61 71.145 24.355-7.22z" fill="#4f67d2"/><path d="m346.187 197.556-4.733-15.965c-3.082-10.396 1.53-21.531 11.061-26.703l43.055-23.365.896-1.652c4.985-9.186-5.117-19.343-14.336-14.336l-71.144 38.61 10.717 36.154z" fill="#4f67d2"/><path d="m395.305 379.991-42.79-23.222c-9.53-5.172-14.143-16.307-11.061-26.703l4.621-15.588-24.372 7.225-10.717 36.153 71.144 38.61c9.257 5.024 19.305-5.18 14.336-14.336z" fill="#4f67d2"/><path d="m143.807 382.13 34.691-63.924-24.355-7.22-38.61 71.144c-4.986 9.188 5.115 19.34 14.336 14.336l12.892-6.997c-.539-2.305-.301-4.856 1.046-7.339z" fill="#4f67d2"/><path d="m190.471 189.713-181.046 53.664c-5.59 1.657-9.425 6.793-9.425 12.623h256z" fill="#d9edff"/><path d="m89.625 253.157 126.689-29.912c1.819-.429 3.408-1.403 4.608-2.729l-30.451-30.803-181.046 53.663c-5.59 1.658-9.425 6.794-9.425 12.624h87.419c-.021-1.238.711-2.49 2.206-2.843z" fill="#b4dbff"/><path d="m256 256 64.186 66.795 1.93-.678 180.459-53.494c5.59-1.657 9.425-6.793 9.425-12.624h-256z" fill="#d9edff"/><path d="m322.117 322.117-66.117-66.117v256c5.83 0 10.966-3.834 12.624-9.425z" fill="#ff656f"/><path d="" fill="#ff656f"/><path d="m188.474 317.194 1.409 4.923 53.494 180.458c1.657 5.591 6.793 9.425 12.623 9.425v-256z" fill="#d9edff"/><path d="m189.883 322.117 53.494 180.458c1.657 5.59 6.793 9.425 12.623 9.425l-32.154-216.842c-.393-2.647-1.937-4.911-4.118-6.287l-31.254 28.323z" fill="#b4dbff"/><path d="m322.719 191.834-54.095-182.409c-1.658-5.59-6.794-9.425-12.624-9.425v256z" fill="#d9edff"/><path d="m189.883 189.883 66.117 66.117v-256c-5.83 0-10.966 3.835-12.624 9.425z" fill="#ff656f"/><path d="m243.376 9.425-53.494 180.458 30.838 30.838c1.268-1.315 2.144-3.005 2.432-4.892l32.848-215.829c-5.831 0-10.966 3.835-12.624 9.425z" fill="#ff4756"/><path d="m488.105 214.233c-3.571 0-6.78-2.49-7.55-6.124-18.787-88.532-88.131-157.877-176.664-176.664-4.174-.886-6.84-4.987-5.954-9.161.885-4.174 4.986-6.842 9.161-5.954 94.5 20.053 168.518 94.072 188.572 188.572.886 4.174-1.78 8.276-5.954 9.161-.54.115-1.08.17-1.611.17z" fill="#b4dbff"/><path d="m23.895 214.233c-.531 0-1.07-.055-1.611-.17-4.175-.886-6.84-4.987-5.954-9.161 20.053-94.501 94.072-168.519 188.572-188.572 4.174-.888 8.276 1.78 9.161 5.954.886 4.174-1.78 8.276-5.954 9.161-88.532 18.787-157.877 88.132-176.664 176.664-.77 3.633-3.978 6.124-7.55 6.124z" fill="#b4dbff"/><path d="m305.488 495.84c-3.571 0-6.78-2.49-7.55-6.124-.886-4.174 1.78-8.276 5.954-9.161 88.531-18.787 157.876-88.131 176.663-176.663.885-4.175 4.986-6.845 9.161-5.954 4.175.886 6.84 4.987 5.954 9.161-20.053 94.5-94.072 168.518-188.572 188.571-.539.115-1.079.17-1.61.17z" fill="#b4dbff"/><path d="m206.513 495.84c-.531 0-1.07-.055-1.611-.17-94.5-20.053-168.518-94.071-188.572-188.571-.886-4.174 1.78-8.276 5.954-9.161 4.176-.886 8.277 1.78 9.162 5.954 18.787 88.532 88.132 157.876 176.663 176.663 4.175.885 6.84 4.987 5.954 9.161-.771 3.633-3.979 6.124-7.55 6.124z" fill="#b4dbff"/><path d="m256 256h256c0-5.83-3.835-10.967-9.425-12.624l-180.458-53.494z" fill="#23a8fe"/><path d="m189.883 322.117 66.117-66.117h-256c0 5.83 3.835 10.967 9.425 12.624z" fill="#23a8fe"/><path d="m216.929 287.691-127.282-28.947c-1.465-.333-2.207-1.532-2.228-2.744h-87.419c0 5.83 3.834 10.967 9.425 12.624l180.458 53.494 31.705-31.705c-1.214-1.333-2.822-2.304-4.659-2.722z" fill="#0193fa"/></svg>